<?xml version="1.0" encoding="UTF-8" standalone="no"?>
<!DOCTYPE svg PUBLIC "-//W3C//DTD SVG 1.1//EN"
 "http://www.w3.org/Graphics/SVG/1.1/DTD/svg11.dtd">
<!-- Generated by graphviz version 8.0.5 (20230430.1635)
 -->
<!-- Pages: 1 -->
<svg width="534pt" height="430pt"
 viewBox="0.00 0.00 533.60 430.00" xmlns="http://www.w3.org/2000/svg" xmlns:xlink="http://www.w3.org/1999/xlink">
<g id="graph0" class="graph" transform="scale(1 1) rotate(0) translate(4 426)">
<polygon fill="white" stroke="none" points="-4,4 -4,-426 529.6,-426 529.6,4 -4,4"/>
<!-- Main -->
<g id="node1" class="node">
<title>Main</title>
<path fill="none" stroke="black" d="M52.6,-182.5C52.6,-182.5 82.6,-182.5 82.6,-182.5 88.6,-182.5 94.6,-188.5 94.6,-194.5 94.6,-194.5 94.6,-206.5 94.6,-206.5 94.6,-212.5 88.6,-218.5 82.6,-218.5 82.6,-218.5 52.6,-218.5 52.6,-218.5 46.6,-218.5 40.6,-212.5 40.6,-206.5 40.6,-206.5 40.6,-194.5 40.6,-194.5 40.6,-188.5 46.6,-182.5 52.6,-182.5"/>
<text text-anchor="middle" x="67.6" y="-195.2" font-family="Times New Roman,serif" font-size="14.00">Main</text>
</g>
<!-- Tools -->
<g id="node2" class="node">
<title>Tools</title>
<path fill="none" stroke="black" d="M204.6,-323.5C204.6,-323.5 234.6,-323.5 234.6,-323.5 240.6,-323.5 246.6,-329.5 246.6,-335.5 246.6,-335.5 246.6,-347.5 246.6,-347.5 246.6,-353.5 240.6,-359.5 234.6,-359.5 234.6,-359.5 204.6,-359.5 204.6,-359.5 198.6,-359.5 192.6,-353.5 192.6,-347.5 192.6,-347.5 192.6,-335.5 192.6,-335.5 192.6,-329.5 198.6,-323.5 204.6,-323.5"/>
<text text-anchor="middle" x="219.6" y="-336.2" font-family="Times New Roman,serif" font-size="14.00">Tools</text>
</g>
<!-- Main&#45;&gt;Tools -->
<g id="edge1" class="edge">
<title>Main&#45;&gt;Tools</title>
<path fill="none" stroke="black" d="M71.59,-218.49C76.33,-241.51 87.71,-281.17 112.6,-304.5 131.66,-322.37 159.83,-331.67 182.34,-336.48"/>
<polygon fill="black" stroke="black" points="181.39,-340.05 191.87,-338.49 182.7,-333.18 181.39,-340.05"/>
<text text-anchor="middle" x="139.6" y="-333.95" font-family="Times New Roman,serif" font-size="14.00">Tools</text>
</g>
<!-- Simple -->
<g id="node3" class="node">
<title>Simple</title>
<path fill="none" stroke="black" d="M204.47,-183.5C204.47,-183.5 234.72,-183.5 234.72,-183.5 240.72,-183.5 246.72,-189.5 246.72,-195.5 246.72,-195.5 246.72,-207.5 246.72,-207.5 246.72,-213.5 240.72,-219.5 234.72,-219.5 234.72,-219.5 204.47,-219.5 204.47,-219.5 198.47,-219.5 192.47,-213.5 192.47,-207.5 192.47,-207.5 192.47,-195.5 192.47,-195.5 192.47,-189.5 198.47,-183.5 204.47,-183.5"/>
<text text-anchor="middle" x="219.6" y="-196.2" font-family="Times New Roman,serif" font-size="14.00">Simple</text>
</g>
<!-- Main&#45;&gt;Simple -->
<g id="edge2" class="edge">
<title>Main&#45;&gt;Simple</title>
<path fill="none" stroke="black" d="M94.39,-200.67C118.53,-200.83 154.87,-201.08 182.01,-201.26"/>
<polygon fill="black" stroke="black" points="181.63,-204.76 191.65,-201.33 181.67,-197.76 181.63,-204.76"/>
<text text-anchor="middle" x="139.6" y="-203.95" font-family="Times New Roman,serif" font-size="14.00">Simple</text>
</g>
<!-- Persistent -->
<g id="node4" class="node">
<title>Persistent</title>
<path fill="none" stroke="black" d="M196.6,-63.5C196.6,-63.5 242.6,-63.5 242.6,-63.5 248.6,-63.5 254.6,-69.5 254.6,-75.5 254.6,-75.5 254.6,-87.5 254.6,-87.5 254.6,-93.5 248.6,-99.5 242.6,-99.5 242.6,-99.5 196.6,-99.5 196.6,-99.5 190.6,-99.5 184.6,-93.5 184.6,-87.5 184.6,-87.5 184.6,-75.5 184.6,-75.5 184.6,-69.5 190.6,-63.5 196.6,-63.5"/>
<text text-anchor="middle" x="219.6" y="-76.2" font-family="Times New Roman,serif" font-size="14.00">Persistent</text>
</g>
<!-- Main&#45;&gt;Persistent -->
<g id="edge3" class="edge">
<title>Main&#45;&gt;Persistent</title>
<path fill="none" stroke="black" d="M86.1,-182.9C93.98,-175.23 103.54,-166.3 112.6,-158.75 125.51,-148 158.77,-123.96 184.62,-105.54"/>
<polygon fill="black" stroke="black" points="186.29,-107.93 192.41,-99.29 182.23,-102.23 186.29,-107.93"/>
<text text-anchor="middle" x="139.6" y="-161.95" font-family="Times New Roman,serif" font-size="14.00">Persistent</text>
</g>
<!-- Tools&#45;&gt;Main -->
<g id="edge6" class="edge">
<title>Tools&#45;&gt;Main</title>
<path fill="none" stroke="black" d="M203.19,-323.61C193.11,-312.17 179.46,-297.21 166.6,-284.75 144.84,-263.67 118.77,-241.39 99,-225.04"/>
<polygon fill="black" stroke="black" points="101.61,-221.84 91.66,-218.19 97.17,-227.25 101.61,-221.84"/>
<text text-anchor="middle" x="139.6" y="-286.95" font-family="Times New Roman,serif" font-size="14.00">Back</text>
</g>
<!-- EditFlags.ps1 -->
<g id="node5" class="node">
<title>EditFlags.ps1</title>
<path fill="none" stroke="black" d="M428.6,-385.5C428.6,-385.5 497.1,-385.5 497.1,-385.5 503.1,-385.5 509.1,-391.5 509.1,-397.5 509.1,-397.5 509.1,-409.5 509.1,-409.5 509.1,-415.5 503.1,-421.5 497.1,-421.5 497.1,-421.5 428.6,-421.5 428.6,-421.5 422.6,-421.5 416.6,-415.5 416.6,-409.5 416.6,-409.5 416.6,-397.5 416.6,-397.5 416.6,-391.5 422.6,-385.5 428.6,-385.5"/>
<text text-anchor="middle" x="462.85" y="-398.2" font-family="Times New Roman,serif" font-size="14.00">EditFlags.ps1</text>
</g>
<!-- Tools&#45;&gt;EditFlags.ps1 -->
<g id="edge4" class="edge">
<title>Tools&#45;&gt;EditFlags.ps1</title>
<path fill="none" stroke="black" d="M246.57,-354.94C254.74,-358.77 263.9,-362.66 272.6,-365.5 316.57,-379.84 368.14,-389.77 406.33,-395.87"/>
<polygon fill="black" stroke="black" points="405.31,-399.4 415.73,-397.49 406.39,-392.49 405.31,-399.4"/>
<text text-anchor="middle" x="327.35" y="-392.95" font-family="Times New Roman,serif" font-size="14.00">EditFlags.ps1</text>
</g>
<!-- EditProperties.ps1 -->
<g id="node6" class="node">
<title>EditProperties.ps1</title>
<path fill="none" stroke="black" d="M415.1,-330.5C415.1,-330.5 510.6,-330.5 510.6,-330.5 516.6,-330.5 522.6,-336.5 522.6,-342.5 522.6,-342.5 522.6,-354.5 522.6,-354.5 522.6,-360.5 516.6,-366.5 510.6,-366.5 510.6,-366.5 415.1,-366.5 415.1,-366.5 409.1,-366.5 403.1,-360.5 403.1,-354.5 403.1,-354.5 403.1,-342.5 403.1,-342.5 403.1,-336.5 409.1,-330.5 415.1,-330.5"/>
<text text-anchor="middle" x="462.85" y="-343.2" font-family="Times New Roman,serif" font-size="14.00">EditProperties.ps1</text>
</g>
<!-- Tools&#45;&gt;EditProperties.ps1 -->
<g id="edge5" class="edge">
<title>Tools&#45;&gt;EditProperties.ps1</title>
<path fill="none" stroke="black" d="M246.42,-342.25C281,-343.25 343.66,-345.07 392.52,-346.49"/>
<polygon fill="black" stroke="black" points="392.26,-350.01 402.35,-346.8 392.46,-343.01 392.26,-350.01"/>
<text text-anchor="middle" x="327.35" y="-347.95" font-family="Times New Roman,serif" font-size="14.00">EditProperties.ps1</text>
</g>
<!-- Simple&#45;&gt;Main -->
<g id="edge11" class="edge">
<title>Simple&#45;&gt;Main</title>
<path fill="none" stroke="black" d="M192.68,-189.54C184.51,-186.36 175.34,-183.35 166.6,-181.75 142.99,-177.42 136.11,-176.95 112.6,-181.75 110.06,-182.27 107.49,-182.94 104.92,-183.72"/>
<polygon fill="black" stroke="black" points="103.81,-180.75 95.57,-187.41 106.16,-187.35 103.81,-180.75"/>
<text text-anchor="middle" x="139.6" y="-184.95" font-family="Times New Roman,serif" font-size="14.00">Back</text>
</g>
<!-- Cart.ps1 -->
<g id="node7" class="node">
<title>Cart.ps1</title>
<path fill="none" stroke="black" d="M442.85,-275.5C442.85,-275.5 482.85,-275.5 482.85,-275.5 488.85,-275.5 494.85,-281.5 494.85,-287.5 494.85,-287.5 494.85,-299.5 494.85,-299.5 494.85,-305.5 488.85,-311.5 482.85,-311.5 482.85,-311.5 442.85,-311.5 442.85,-311.5 436.85,-311.5 430.85,-305.5 430.85,-299.5 430.85,-299.5 430.85,-287.5 430.85,-287.5 430.85,-281.5 436.85,-275.5 442.85,-275.5"/>
<text text-anchor="middle" x="462.85" y="-288.2" font-family="Times New Roman,serif" font-size="14.00">Cart.ps1</text>
</g>
<!-- Simple&#45;&gt;Cart.ps1 -->
<g id="edge7" class="edge">
<title>Simple&#45;&gt;Cart.ps1</title>
<path fill="none" stroke="black" d="M234.4,-219.48C243.94,-230.66 257.57,-244.4 272.6,-252.5 319.16,-277.6 379.97,-287.34 419.93,-291.11"/>
<polygon fill="black" stroke="black" points="419.61,-294.68 429.87,-292.04 420.21,-287.71 419.61,-294.68"/>
<text text-anchor="middle" x="327.35" y="-287.95" font-family="Times New Roman,serif" font-size="14.00">Cart.ps1</text>
</g>
<!-- OnOff.ps1 -->
<g id="node8" class="node">
<title>OnOff.ps1</title>
<path fill="none" stroke="black" d="M436.47,-220.5C436.47,-220.5 489.22,-220.5 489.22,-220.5 495.22,-220.5 501.22,-226.5 501.22,-232.5 501.22,-232.5 501.22,-244.5 501.22,-244.5 501.22,-250.5 495.22,-256.5 489.22,-256.5 489.22,-256.5 436.47,-256.5 436.47,-256.5 430.47,-256.5 424.47,-250.5 424.47,-244.5 424.47,-244.5 424.47,-232.5 424.47,-232.5 424.47,-226.5 430.47,-220.5 436.47,-220.5"/>
<text text-anchor="middle" x="462.85" y="-233.2" font-family="Times New Roman,serif" font-size="14.00">OnOff.ps1</text>
</g>
<!-- Simple&#45;&gt;OnOff.ps1 -->
<g id="edge8" class="edge">
<title>Simple&#45;&gt;OnOff.ps1</title>
<path fill="none" stroke="black" d="M246.58,-209.91C254.83,-212.33 264.03,-214.78 272.6,-216.5 320.12,-226.05 375.25,-231.87 413.7,-235.11"/>
<polygon fill="black" stroke="black" points="413.33,-238.67 423.58,-235.99 413.89,-231.7 413.33,-238.67"/>
<text text-anchor="middle" x="327.35" y="-234.95" font-family="Times New Roman,serif" font-size="14.00">OnOff.ps1</text>
</g>
<!-- Phone.ps1 -->
<g id="node9" class="node">
<title>Phone.ps1</title>
<path fill="none" stroke="black" d="M437.22,-165.5C437.22,-165.5 488.47,-165.5 488.47,-165.5 494.47,-165.5 500.47,-171.5 500.47,-177.5 500.47,-177.5 500.47,-189.5 500.47,-189.5 500.47,-195.5 494.47,-201.5 488.47,-201.5 488.47,-201.5 437.22,-201.5 437.22,-201.5 431.22,-201.5 425.22,-195.5 425.22,-189.5 425.22,-189.5 425.22,-177.5 425.22,-177.5 425.22,-171.5 431.22,-165.5 437.22,-165.5"/>
<text text-anchor="middle" x="462.85" y="-178.2" font-family="Times New Roman,serif" font-size="14.00">Phone.ps1</text>
</g>
<!-- Simple&#45;&gt;Phone.ps1 -->
<g id="edge9" class="edge">
<title>Simple&#45;&gt;Phone.ps1</title>
<path fill="none" stroke="black" d="M246.42,-199.57C286.42,-196.59 364.01,-190.8 414.34,-187.05"/>
<polygon fill="black" stroke="black" points="414.55,-190.46 424.26,-186.23 414.03,-183.48 414.55,-190.46"/>
<text text-anchor="middle" x="327.35" y="-200.95" font-family="Times New Roman,serif" font-size="14.00">Phone.ps1</text>
</g>
<!-- Steps.ps1 -->
<g id="node10" class="node">
<title>Steps.ps1</title>
<path fill="none" stroke="black" d="M439.1,-110.5C439.1,-110.5 486.6,-110.5 486.6,-110.5 492.6,-110.5 498.6,-116.5 498.6,-122.5 498.6,-122.5 498.6,-134.5 498.6,-134.5 498.6,-140.5 492.6,-146.5 486.6,-146.5 486.6,-146.5 439.1,-146.5 439.1,-146.5 433.1,-146.5 427.1,-140.5 427.1,-134.5 427.1,-134.5 427.1,-122.5 427.1,-122.5 427.1,-116.5 433.1,-110.5 439.1,-110.5"/>
<text text-anchor="middle" x="462.85" y="-123.2" font-family="Times New Roman,serif" font-size="14.00">Steps.ps1</text>
</g>
<!-- Simple&#45;&gt;Steps.ps1 -->
<g id="edge10" class="edge">
<title>Simple&#45;&gt;Steps.ps1</title>
<path fill="none" stroke="black" d="M246.5,-184.02C254.59,-179.16 263.73,-174.26 272.6,-170.75 320,-151.99 377.53,-140.64 416.63,-134.5"/>
<polygon fill="black" stroke="black" points="417.03,-137.83 426.39,-132.87 415.98,-130.91 417.03,-137.83"/>
<text text-anchor="middle" x="327.35" y="-173.95" font-family="Times New Roman,serif" font-size="14.00">Steps.ps1</text>
</g>
<!-- Persistent&#45;&gt;Main -->
<g id="edge14" class="edge">
<title>Persistent&#45;&gt;Main</title>
<path fill="none" stroke="black" d="M184.73,-79.43C162.1,-79.79 132.88,-83.85 112.6,-99.75 90.01,-117.46 78.77,-149.13 73.35,-172.25"/>
<polygon fill="black" stroke="black" points="69.76,-171.31 71.13,-181.81 76.61,-172.75 69.76,-171.31"/>
<text text-anchor="middle" x="139.6" y="-102.95" font-family="Times New Roman,serif" font-size="14.00">Back</text>
</g>
<!-- Phone.stateless.ps1 -->
<g id="node11" class="node">
<title>Phone.stateless.ps1</title>
<path fill="none" stroke="black" d="M412.1,-55.5C412.1,-55.5 513.6,-55.5 513.6,-55.5 519.6,-55.5 525.6,-61.5 525.6,-67.5 525.6,-67.5 525.6,-79.5 525.6,-79.5 525.6,-85.5 519.6,-91.5 513.6,-91.5 513.6,-91.5 412.1,-91.5 412.1,-91.5 406.1,-91.5 400.1,-85.5 400.1,-79.5 400.1,-79.5 400.1,-67.5 400.1,-67.5 400.1,-61.5 406.1,-55.5 412.1,-55.5"/>
<text text-anchor="middle" x="462.85" y="-68.2" font-family="Times New Roman,serif" font-size="14.00">Phone.stateless.ps1</text>
</g>
<!-- Persistent&#45;&gt;Phone.stateless.ps1 -->
<g id="edge12" class="edge">
<title>Persistent&#45;&gt;Phone.stateless.ps1</title>
<path fill="none" stroke="black" d="M254.4,-80.38C289.26,-79.22 344.71,-77.38 389.51,-75.9"/>
<polygon fill="black" stroke="black" points="389.48,-79.37 399.36,-75.54 389.25,-72.37 389.48,-79.37"/>
<text text-anchor="middle" x="327.35" y="-82.95" font-family="Times New Roman,serif" font-size="14.00">Phone.stateless.ps1</text>
</g>
<!-- Steps.stateless.ps1 -->
<g id="node12" class="node">
<title>Steps.stateless.ps1</title>
<path fill="none" stroke="black" d="M413.97,-0.5C413.97,-0.5 511.72,-0.5 511.72,-0.5 517.72,-0.5 523.72,-6.5 523.72,-12.5 523.72,-12.5 523.72,-24.5 523.72,-24.5 523.72,-30.5 517.72,-36.5 511.72,-36.5 511.72,-36.5 413.97,-36.5 413.97,-36.5 407.97,-36.5 401.97,-30.5 401.97,-24.5 401.97,-24.5 401.97,-12.5 401.97,-12.5 401.97,-6.5 407.97,-0.5 413.97,-0.5"/>
<text text-anchor="middle" x="462.85" y="-13.2" font-family="Times New Roman,serif" font-size="14.00">Steps.stateless.ps1</text>
</g>
<!-- Persistent&#45;&gt;Steps.stateless.ps1 -->
<g id="edge13" class="edge">
<title>Persistent&#45;&gt;Steps.stateless.ps1</title>
<path fill="none" stroke="black" d="M254.51,-63.91C260.44,-61.25 266.62,-58.74 272.6,-56.75 311.09,-43.92 355.5,-34.67 391.62,-28.48"/>
<polygon fill="black" stroke="black" points="391.77,-31.84 401.06,-26.74 390.62,-24.93 391.77,-31.84"/>
<text text-anchor="middle" x="327.35" y="-59.95" font-family="Times New Roman,serif" font-size="14.00">Steps.stateless.ps1</text>
</g>
<!-- init -->
<g id="node13" class="node">
<title>init</title>
<ellipse fill="black" stroke="black" cx="1.8" cy="-200.5" rx="1.8" ry="1.8"/>
</g>
<!-- init&#45;&gt;Main -->
<g id="edge15" class="edge">
<title>init&#45;&gt;Main</title>
<path fill="none" stroke="black" d="M3.91,-200.5C7.33,-200.5 18.21,-200.5 29.96,-200.5"/>
<polygon fill="black" stroke="black" points="29.82,-204 39.82,-200.5 29.82,-197 29.82,-204"/>
</g>
</g>
</svg>
