<?xml version="1.0" encoding="UTF-8" standalone="no"?>
<!DOCTYPE svg PUBLIC "-//W3C//DTD SVG 1.1//EN"
 "http://www.w3.org/Graphics/SVG/1.1/DTD/svg11.dtd">
<!-- Generated by graphviz version 8.0.5 (20230430.1635)
 -->
<!-- Pages: 1 -->
<svg width="313pt" height="426pt"
 viewBox="0.00 0.00 313.48 425.50" xmlns="http://www.w3.org/2000/svg" xmlns:xlink="http://www.w3.org/1999/xlink">
<g id="graph0" class="graph" transform="scale(1 1) rotate(0) translate(4 421.5)">
<polygon fill="white" stroke="none" points="-4,4 -4,-421.5 309.48,-421.5 309.48,4 -4,4"/>
<!-- Main -->
<g id="node1" class="node">
<title>Main</title>
<path fill="none" stroke="black" d="M52.6,-117.5C52.6,-117.5 82.6,-117.5 82.6,-117.5 88.6,-117.5 94.6,-123.5 94.6,-129.5 94.6,-129.5 94.6,-141.5 94.6,-141.5 94.6,-147.5 88.6,-153.5 82.6,-153.5 82.6,-153.5 52.6,-153.5 52.6,-153.5 46.6,-153.5 40.6,-147.5 40.6,-141.5 40.6,-141.5 40.6,-129.5 40.6,-129.5 40.6,-123.5 46.6,-117.5 52.6,-117.5"/>
<text text-anchor="middle" x="67.6" y="-130.2" font-family="Times New Roman,serif" font-size="14.00">Main</text>
</g>
<!-- Tools -->
<g id="node2" class="node">
<title>Tools</title>
<path fill="none" stroke="black" d="M204.6,-313.5C204.6,-313.5 234.6,-313.5 234.6,-313.5 240.6,-313.5 246.6,-319.5 246.6,-325.5 246.6,-325.5 246.6,-337.5 246.6,-337.5 246.6,-343.5 240.6,-349.5 234.6,-349.5 234.6,-349.5 204.6,-349.5 204.6,-349.5 198.6,-349.5 192.6,-343.5 192.6,-337.5 192.6,-337.5 192.6,-325.5 192.6,-325.5 192.6,-319.5 198.6,-313.5 204.6,-313.5"/>
<text text-anchor="middle" x="219.6" y="-326.2" font-family="Times New Roman,serif" font-size="14.00">Tools</text>
</g>
<!-- Main&#45;&gt;Tools -->
<g id="edge1" class="edge">
<title>Main&#45;&gt;Tools</title>
<path fill="none" stroke="black" d="M70.3,-153.17C73.79,-180.95 84.01,-235.28 112.6,-270.5 130.82,-292.94 159.64,-308.77 182.63,-318.67"/>
<polygon fill="black" stroke="black" points="181.15,-322.25 191.73,-322.8 183.8,-315.77 181.15,-322.25"/>
<text text-anchor="middle" x="139.6" y="-311.95" font-family="Times New Roman,serif" font-size="14.00">Tools</text>
</g>
<!-- Simple -->
<g id="node3" class="node">
<title>Simple</title>
<path fill="none" stroke="black" d="M204.48,-123.5C204.48,-123.5 234.73,-123.5 234.73,-123.5 240.73,-123.5 246.73,-129.5 246.73,-135.5 246.73,-135.5 246.73,-147.5 246.73,-147.5 246.73,-153.5 240.73,-159.5 234.73,-159.5 234.73,-159.5 204.48,-159.5 204.48,-159.5 198.48,-159.5 192.48,-153.5 192.48,-147.5 192.48,-147.5 192.48,-135.5 192.48,-135.5 192.48,-129.5 198.48,-123.5 204.48,-123.5"/>
<text text-anchor="middle" x="219.6" y="-136.2" font-family="Times New Roman,serif" font-size="14.00">Simple</text>
</g>
<!-- Main&#45;&gt;Simple -->
<g id="edge2" class="edge">
<title>Main&#45;&gt;Simple</title>
<path fill="none" stroke="black" d="M94.39,-136.53C118.53,-137.5 154.87,-138.95 182.01,-140.04"/>
<polygon fill="black" stroke="black" points="181.52,-143.56 191.65,-140.46 181.8,-136.56 181.52,-143.56"/>
<text text-anchor="middle" x="139.6" y="-141.95" font-family="Times New Roman,serif" font-size="14.00">Simple</text>
</g>
<!-- Persistent -->
<g id="node4" class="node">
<title>Persistent</title>
<path fill="none" stroke="black" d="M196.6,-0.5C196.6,-0.5 242.6,-0.5 242.6,-0.5 248.6,-0.5 254.6,-6.5 254.6,-12.5 254.6,-12.5 254.6,-24.5 254.6,-24.5 254.6,-30.5 248.6,-36.5 242.6,-36.5 242.6,-36.5 196.6,-36.5 196.6,-36.5 190.6,-36.5 184.6,-30.5 184.6,-24.5 184.6,-24.5 184.6,-12.5 184.6,-12.5 184.6,-6.5 190.6,-0.5 196.6,-0.5"/>
<text text-anchor="middle" x="219.6" y="-13.2" font-family="Times New Roman,serif" font-size="14.00">Persistent</text>
</g>
<!-- Main&#45;&gt;Persistent -->
<g id="edge3" class="edge">
<title>Main&#45;&gt;Persistent</title>
<path fill="none" stroke="black" d="M86.99,-117.52C94.7,-110.23 103.89,-101.87 112.6,-94.75 125.47,-84.23 158.4,-60.72 184.17,-42.57"/>
<polygon fill="black" stroke="black" points="185.78,-45.02 191.95,-36.41 181.75,-39.29 185.78,-45.02"/>
<text text-anchor="middle" x="139.6" y="-97.95" font-family="Times New Roman,serif" font-size="14.00">Persistent</text>
</g>
<!-- Tools&#45;&gt;Main -->
<g id="edge6" class="edge">
<title>Tools&#45;&gt;Main</title>
<path fill="none" stroke="black" d="M192.86,-313.82C189.8,-310.96 186.94,-307.83 184.6,-304.5 170.14,-283.87 178.98,-272.69 166.6,-250.75 147.28,-216.53 117.07,-182.94 95.29,-160.93"/>
<polygon fill="black" stroke="black" points="98.25,-158.94 88.69,-154.37 93.31,-163.9 98.25,-158.94"/>
<text text-anchor="middle" x="139.6" y="-252.95" font-family="Times New Roman,serif" font-size="14.00">Back</text>
</g>
<!-- Tools&#45;&gt;Tools -->
<g id="edge4" class="edge">
<title>Tools&#45;&gt;Tools</title>
<path fill="none" stroke="black" d="M212.46,-349.15C211.13,-358.96 213.51,-368 219.6,-368 223.31,-368 225.65,-364.64 226.6,-359.8"/>
<polygon fill="black" stroke="black" points="230.11,-360.2 226.74,-350.15 223.11,-360.11 230.11,-360.2"/>
<text text-anchor="middle" x="219.6" y="-370.45" font-family="Times New Roman,serif" font-size="14.00">EditFlags.ps1 [Function]</text>
</g>
<!-- Tools&#45;&gt;Tools -->
<g id="edge5" class="edge">
<title>Tools&#45;&gt;Tools</title>
<path fill="none" stroke="black" d="M207.68,-349.36C201.1,-366.82 205.07,-386 219.6,-386 231.29,-386 236.15,-373.58 234.17,-359.63"/>
<polygon fill="black" stroke="black" points="237.41,-359.17 231.52,-350.36 230.63,-360.92 237.41,-359.17"/>
<text text-anchor="middle" x="219.6" y="-388.45" font-family="Times New Roman,serif" font-size="14.00">EditProperties.ps1 [Function]</text>
</g>
<!-- Simple&#45;&gt;Main -->
<g id="edge11" class="edge">
<title>Simple&#45;&gt;Main</title>
<path fill="none" stroke="black" d="M192.64,-127.01C184.55,-123.23 175.43,-119.67 166.6,-117.75 143.15,-112.65 136.16,-113.18 112.6,-117.75 109.91,-118.27 107.18,-118.96 104.46,-119.76"/>
<polygon fill="black" stroke="black" points="103.48,-116.73 95.15,-123.28 105.75,-123.36 103.48,-116.73"/>
<text text-anchor="middle" x="139.6" y="-120.95" font-family="Times New Roman,serif" font-size="14.00">Back</text>
</g>
<!-- Simple&#45;&gt;Simple -->
<g id="edge7" class="edge">
<title>Simple&#45;&gt;Simple</title>
<path fill="none" stroke="black" d="M216.03,-159.15C215.36,-168.96 216.55,-178 219.6,-178 221.46,-178 222.62,-174.64 223.1,-169.8"/>
<polygon fill="black" stroke="black" points="226.61,-170.17 223.17,-160.15 219.61,-170.13 226.61,-170.17"/>
<text text-anchor="middle" x="219.6" y="-180.45" font-family="Times New Roman,serif" font-size="14.00">Cart.ps1 [Function]</text>
</g>
<!-- Simple&#45;&gt;Simple -->
<g id="edge8" class="edge">
<title>Simple&#45;&gt;Simple</title>
<path fill="none" stroke="black" d="M213.64,-159.36C210.35,-176.82 212.33,-196 219.6,-196 225.39,-196 227.83,-183.82 226.91,-170.04"/>
<polygon fill="black" stroke="black" points="230.29,-169.84 225.56,-160.36 223.35,-170.72 230.29,-169.84"/>
<text text-anchor="middle" x="219.6" y="-198.45" font-family="Times New Roman,serif" font-size="14.00">OnOff.ps1 [Function]</text>
</g>
<!-- Simple&#45;&gt;Simple -->
<g id="edge9" class="edge">
<title>Simple&#45;&gt;Simple</title>
<path fill="none" stroke="black" d="M212.11,-159.34C205.27,-183.91 207.76,-214 219.6,-214 229.77,-214 233.05,-191.78 229.42,-169.93"/>
<polygon fill="black" stroke="black" points="232.66,-169.35 227.09,-160.34 225.82,-170.86 232.66,-169.35"/>
<text text-anchor="middle" x="219.6" y="-216.45" font-family="Times New Roman,serif" font-size="14.00">Phone.ps1 [Function]</text>
</g>
<!-- Simple&#45;&gt;Simple -->
<g id="edge10" class="edge">
<title>Simple&#45;&gt;Simple</title>
<path fill="none" stroke="black" d="M211.06,-159.27C200.19,-190.62 203.04,-232 219.6,-232 234.42,-232 238.26,-198.89 231.12,-169.46"/>
<polygon fill="black" stroke="black" points="234.31,-168.88 228.14,-160.27 227.59,-170.85 234.31,-168.88"/>
<text text-anchor="middle" x="219.6" y="-234.45" font-family="Times New Roman,serif" font-size="14.00">Steps.ps1 [Function]</text>
</g>
<!-- Persistent&#45;&gt;Main -->
<g id="edge14" class="edge">
<title>Persistent&#45;&gt;Main</title>
<path fill="none" stroke="black" d="M184.76,-16.47C162.15,-16.86 132.94,-20.93 112.6,-36.75 90.55,-53.9 79.26,-84.49 73.68,-107.1"/>
<polygon fill="black" stroke="black" points="70.06,-106.25 71.32,-116.77 76.9,-107.76 70.06,-106.25"/>
<text text-anchor="middle" x="139.6" y="-39.95" font-family="Times New Roman,serif" font-size="14.00">Back</text>
</g>
<!-- Persistent&#45;&gt;Persistent -->
<g id="edge12" class="edge">
<title>Persistent&#45;&gt;Persistent</title>
<path fill="none" stroke="black" d="M212.46,-36.15C211.13,-45.96 213.51,-55 219.6,-55 223.31,-55 225.65,-51.64 226.6,-46.8"/>
<polygon fill="black" stroke="black" points="230.11,-47.2 226.74,-37.15 223.11,-47.11 230.11,-47.2"/>
<text text-anchor="middle" x="219.6" y="-57.45" font-family="Times New Roman,serif" font-size="14.00">Phone.stateless.ps1 [Function]</text>
</g>
<!-- Persistent&#45;&gt;Persistent -->
<g id="edge13" class="edge">
<title>Persistent&#45;&gt;Persistent</title>
<path fill="none" stroke="black" d="M207.68,-36.36C201.1,-53.82 205.07,-73 219.6,-73 231.29,-73 236.15,-60.58 234.17,-46.63"/>
<polygon fill="black" stroke="black" points="237.41,-46.17 231.52,-37.36 230.63,-47.92 237.41,-46.17"/>
<text text-anchor="middle" x="219.6" y="-75.45" font-family="Times New Roman,serif" font-size="14.00">Steps.stateless.ps1 [Function]</text>
</g>
<!-- init -->
<g id="node5" class="node">
<title>init</title>
<ellipse fill="black" stroke="black" cx="1.8" cy="-135.5" rx="1.8" ry="1.8"/>
</g>
<!-- init&#45;&gt;Main -->
<g id="edge15" class="edge">
<title>init&#45;&gt;Main</title>
<path fill="none" stroke="black" d="M3.91,-135.5C7.33,-135.5 18.21,-135.5 29.96,-135.5"/>
<polygon fill="black" stroke="black" points="29.82,-139 39.82,-135.5 29.82,-132 29.82,-139"/>
</g>
</g>
</svg>
