<?xml version="1.0" encoding="UTF-8" standalone="no"?>
<!DOCTYPE svg PUBLIC "-//W3C//DTD SVG 1.1//EN"
 "http://www.w3.org/Graphics/SVG/1.1/DTD/svg11.dtd">
<!-- Generated by graphviz version 8.0.5 (20230430.1635)
 -->
<!-- Pages: 1 -->
<svg width="502pt" height="177pt"
 viewBox="0.00 0.00 501.62 176.50" xmlns="http://www.w3.org/2000/svg" xmlns:xlink="http://www.w3.org/1999/xlink">
<g id="graph0" class="graph" transform="scale(1 1) rotate(0) translate(4 172.5)">
<polygon fill="white" stroke="none" points="-4,4 -4,-172.5 497.62,-172.5 497.62,4 -4,4"/>
<g id="clust1" class="cluster">
<title>clusterCart</title>
<polygon fill="none" stroke="black" points="100.62,-15.5 100.62,-160.5 313.88,-160.5 313.88,-15.5 100.62,-15.5"/>
<text text-anchor="middle" x="207.25" y="-143.2" font-family="Times New Roman,serif" font-size="14.00">Cart</text>
</g>
<!-- Draft -->
<g id="node1" class="node">
<title>Draft</title>
<path fill="none" stroke="black" d="M120.62,-24.5C120.62,-24.5 150.62,-24.5 150.62,-24.5 156.62,-24.5 162.62,-30.5 162.62,-36.5 162.62,-36.5 162.62,-48.5 162.62,-48.5 162.62,-54.5 156.62,-60.5 150.62,-60.5 150.62,-60.5 120.62,-60.5 120.62,-60.5 114.62,-60.5 108.62,-54.5 108.62,-48.5 108.62,-48.5 108.62,-36.5 108.62,-36.5 108.62,-30.5 114.62,-24.5 120.62,-24.5"/>
<text text-anchor="middle" x="135.62" y="-37.2" font-family="Times New Roman,serif" font-size="14.00">Draft</text>
</g>
<!-- Draft&#45;&gt;Draft -->
<g id="edge2" class="edge">
<title>Draft&#45;&gt;Draft</title>
<path fill="none" stroke="black" d="M131.56,-60.15C130.81,-69.96 132.16,-79 135.62,-79 137.74,-79 139.06,-75.64 139.61,-70.8"/>
<polygon fill="black" stroke="black" points="143.11,-71.18 139.69,-61.15 136.11,-71.13 143.11,-71.18"/>
<text text-anchor="middle" x="135.62" y="-81.45" font-family="Times New Roman,serif" font-size="14.00">AddItem [Function]</text>
</g>
<!-- Draft&#45;&gt;Draft -->
<g id="edge3" class="edge">
<title>Draft&#45;&gt;Draft</title>
<path fill="none" stroke="black" d="M128.85,-60.36C125.1,-77.82 127.36,-97 135.62,-97 142.21,-97 144.98,-84.82 143.94,-71.04"/>
<polygon fill="black" stroke="black" points="147.3,-70.76 142.4,-61.36 140.37,-71.76 147.3,-70.76"/>
<text text-anchor="middle" x="135.62" y="-99.45" font-family="Times New Roman,serif" font-size="14.00">RemoveItem [Function]</text>
</g>
<!-- Saved -->
<g id="node2" class="node">
<title>Saved</title>
<path fill="none" stroke="black" d="M263.88,-53.5C263.88,-53.5 293.88,-53.5 293.88,-53.5 299.88,-53.5 305.88,-59.5 305.88,-65.5 305.88,-65.5 305.88,-77.5 305.88,-77.5 305.88,-83.5 299.88,-89.5 293.88,-89.5 293.88,-89.5 263.88,-89.5 263.88,-89.5 257.88,-89.5 251.88,-83.5 251.88,-77.5 251.88,-77.5 251.88,-65.5 251.88,-65.5 251.88,-59.5 257.88,-53.5 263.88,-53.5"/>
<text text-anchor="middle" x="278.88" y="-66.2" font-family="Times New Roman,serif" font-size="14.00">Saved</text>
</g>
<!-- Draft&#45;&gt;Saved -->
<g id="edge4" class="edge">
<title>Draft&#45;&gt;Saved</title>
<path fill="none" stroke="black" d="M162.55,-39.25C181.95,-37.67 208.94,-37.3 231.62,-43.75 235.76,-44.93 239.9,-46.57 243.92,-48.48"/>
<polygon fill="black" stroke="black" points="242.08,-52.01 252.54,-53.66 245.39,-45.84 242.08,-52.01"/>
<text text-anchor="middle" x="206.12" y="-45.95" font-family="Times New Roman,serif" font-size="14.00">SaveCart</text>
</g>
<!-- Deleted -->
<g id="node3" class="node">
<title>Deleted</title>
<path fill="none" stroke="black" d="M439.38,-0.5C439.38,-0.5 473.38,-0.5 473.38,-0.5 479.38,-0.5 485.38,-6.5 485.38,-12.5 485.38,-12.5 485.38,-24.5 485.38,-24.5 485.38,-30.5 479.38,-36.5 473.38,-36.5 473.38,-36.5 439.38,-36.5 439.38,-36.5 433.38,-36.5 427.38,-30.5 427.38,-24.5 427.38,-24.5 427.38,-12.5 427.38,-12.5 427.38,-6.5 433.38,-0.5 439.38,-0.5"/>
<text text-anchor="middle" x="456.38" y="-13.2" font-family="Times New Roman,serif" font-size="14.00">Deleted</text>
</g>
<!-- Draft&#45;&gt;Deleted -->
<g id="edge5" class="edge">
<title>Draft&#45;&gt;Deleted</title>
<path fill="none" stroke="black" d="M162.62,-37.34C168.52,-36.29 174.78,-35.27 180.62,-34.5 264.25,-23.44 363.2,-20.02 416.57,-18.97"/>
<polygon fill="black" stroke="black" points="416.62,-22.45 426.56,-18.77 416.5,-15.45 416.62,-22.45"/>
<text text-anchor="middle" x="278.88" y="-29.95" font-family="Times New Roman,serif" font-size="14.00">DeleteCart</text>
</g>
<!-- Saved&#45;&gt;Draft -->
<g id="edge6" class="edge">
<title>Saved&#45;&gt;Draft</title>
<path fill="none" stroke="black" d="M251.96,-70.04C232.19,-68.51 204.39,-65.46 180.62,-59.5 177.98,-58.84 175.29,-58.06 172.59,-57.21"/>
<polygon fill="black" stroke="black" points="173.93,-53.62 163.34,-53.65 171.64,-60.24 173.93,-53.62"/>
<text text-anchor="middle" x="206.12" y="-69.95" font-family="Times New Roman,serif" font-size="14.00">EditCart</text>
</g>
<!-- Saved&#45;&gt;Deleted -->
<g id="edge7" class="edge">
<title>Saved&#45;&gt;Deleted</title>
<path fill="none" stroke="black" d="M305.64,-61.09C312.27,-58.55 319.42,-55.94 326.12,-53.75 356.3,-43.87 391.04,-34.51 416.9,-27.92"/>
<polygon fill="black" stroke="black" points="417.56,-31.11 426.4,-25.27 415.85,-24.32 417.56,-31.11"/>
<text text-anchor="middle" x="363.62" y="-55.95" font-family="Times New Roman,serif" font-size="14.00">DeleteCart</text>
</g>
<!-- Purchased -->
<g id="node4" class="node">
<title>Purchased</title>
<path fill="none" stroke="black" d="M431.12,-63.5C431.12,-63.5 481.62,-63.5 481.62,-63.5 487.62,-63.5 493.62,-69.5 493.62,-75.5 493.62,-75.5 493.62,-87.5 493.62,-87.5 493.62,-93.5 487.62,-99.5 481.62,-99.5 481.62,-99.5 431.12,-99.5 431.12,-99.5 425.12,-99.5 419.12,-93.5 419.12,-87.5 419.12,-87.5 419.12,-75.5 419.12,-75.5 419.12,-69.5 425.12,-63.5 431.12,-63.5"/>
<text text-anchor="middle" x="456.38" y="-76.2" font-family="Times New Roman,serif" font-size="14.00">Purchased</text>
</g>
<!-- Saved&#45;&gt;Purchased -->
<g id="edge8" class="edge">
<title>Saved&#45;&gt;Purchased</title>
<path fill="none" stroke="black" d="M305.77,-72.98C332.75,-74.51 375.62,-76.96 408.56,-78.83"/>
<polygon fill="black" stroke="black" points="408.13,-82.37 418.31,-79.45 408.53,-75.38 408.13,-82.37"/>
<text text-anchor="middle" x="363.62" y="-79.95" font-family="Times New Roman,serif" font-size="14.00">PurchaseCart</text>
</g>
<!-- Cart -->
<g id="node5" class="node">
<title>Cart</title>
<path fill="none" stroke="black" d="M29.62,-62.5C29.62,-62.5 59.62,-62.5 59.62,-62.5 65.62,-62.5 71.62,-68.5 71.62,-74.5 71.62,-74.5 71.62,-86.5 71.62,-86.5 71.62,-92.5 65.62,-98.5 59.62,-98.5 59.62,-98.5 29.62,-98.5 29.62,-98.5 23.62,-98.5 17.62,-92.5 17.62,-86.5 17.62,-86.5 17.62,-74.5 17.62,-74.5 17.62,-68.5 23.62,-62.5 29.62,-62.5"/>
<text text-anchor="middle" x="44.62" y="-75.2" font-family="Times New Roman,serif" font-size="14.00">Cart</text>
</g>
<!-- Cart&#45;&gt;Cart -->
<g id="edge1" class="edge">
<title>Cart&#45;&gt;Cart</title>
<path fill="none" stroke="black" d="M36.5,-98.15C34.99,-107.96 37.69,-117 44.62,-117 48.85,-117 51.5,-113.64 52.59,-108.8"/>
<polygon fill="black" stroke="black" points="56.1,-109.2 52.75,-99.15 49.1,-109.1 56.1,-109.2"/>
<text text-anchor="middle" x="44.62" y="-119.45" font-family="Times New Roman,serif" font-size="14.00">Note [Function]</text>
</g>
<!-- init -->
<g id="node6" class="node">
<title>init</title>
<ellipse fill="black" stroke="black" cx="44.62" cy="-42.5" rx="1.8" ry="1.8"/>
</g>
<!-- init&#45;&gt;Draft -->
<g id="edge9" class="edge">
<title>init&#45;&gt;Draft</title>
<path fill="none" stroke="black" d="M46.88,-42.5C52.57,-42.5 76.51,-42.5 97.96,-42.5"/>
<polygon fill="black" stroke="black" points="97.83,-46 107.83,-42.5 97.83,-39 97.83,-46"/>
</g>
</g>
</svg>
