<?xml version="1.0" encoding="UTF-8" standalone="no"?>
<!DOCTYPE svg PUBLIC "-//W3C//DTD SVG 1.1//EN"
 "http://www.w3.org/Graphics/SVG/1.1/DTD/svg11.dtd">
<!-- Generated by graphviz version 8.0.5 (20230430.1635)
 -->
<!-- Pages: 1 -->
<svg width="1151pt" height="394pt"
 viewBox="0.00 0.00 1150.85 393.75" xmlns="http://www.w3.org/2000/svg" xmlns:xlink="http://www.w3.org/1999/xlink">
<g id="graph0" class="graph" transform="scale(1 1) rotate(0) translate(4 389.75)">
<polygon fill="white" stroke="none" points="-4,4 -4,-389.75 1146.85,-389.75 1146.85,4 -4,4"/>
<!-- None -->
<g id="node1" class="node">
<title>None</title>
<path fill="none" stroke="black" d="M52.6,-270C52.6,-270 82.6,-270 82.6,-270 88.6,-270 94.6,-276 94.6,-282 94.6,-282 94.6,-294 94.6,-294 94.6,-300 88.6,-306 82.6,-306 82.6,-306 52.6,-306 52.6,-306 46.6,-306 40.6,-300 40.6,-294 40.6,-294 40.6,-282 40.6,-282 40.6,-276 46.6,-270 52.6,-270"/>
<text text-anchor="middle" x="67.6" y="-282.7" font-family="Times New Roman,serif" font-size="14.00">None</text>
</g>
<!-- Alt -->
<g id="node2" class="node">
<title>Alt</title>
<path fill="none" stroke="black" d="M167.35,-172C167.35,-172 197.35,-172 197.35,-172 203.35,-172 209.35,-178 209.35,-184 209.35,-184 209.35,-196 209.35,-196 209.35,-202 203.35,-208 197.35,-208 197.35,-208 167.35,-208 167.35,-208 161.35,-208 155.35,-202 155.35,-196 155.35,-196 155.35,-184 155.35,-184 155.35,-178 161.35,-172 167.35,-172"/>
<text text-anchor="middle" x="182.35" y="-184.7" font-family="Times New Roman,serif" font-size="14.00">Alt</text>
</g>
<!-- None&#45;&gt;Alt -->
<g id="edge1" class="edge">
<title>None&#45;&gt;Alt</title>
<path fill="none" stroke="black" d="M89.28,-270.03C107.08,-254.55 132.95,-232.07 152.73,-214.87"/>
<polygon fill="black" stroke="black" points="154.55,-217.06 159.8,-207.86 149.96,-211.78 154.55,-217.06"/>
<text text-anchor="middle" x="124.97" y="-250.45" font-family="Times New Roman,serif" font-size="14.00">Alt</text>
</g>
<!-- Shift -->
<g id="node3" class="node">
<title>Shift</title>
<path fill="none" stroke="black" d="M792.1,-157C792.1,-157 822.1,-157 822.1,-157 828.1,-157 834.1,-163 834.1,-169 834.1,-169 834.1,-181 834.1,-181 834.1,-187 828.1,-193 822.1,-193 822.1,-193 792.1,-193 792.1,-193 786.1,-193 780.1,-187 780.1,-181 780.1,-181 780.1,-169 780.1,-169 780.1,-163 786.1,-157 792.1,-157"/>
<text text-anchor="middle" x="807.1" y="-169.7" font-family="Times New Roman,serif" font-size="14.00">Shift</text>
</g>
<!-- None&#45;&gt;Shift -->
<g id="edge2" class="edge">
<title>None&#45;&gt;Shift</title>
<path fill="none" stroke="black" d="M94.56,-289.81C117.4,-291.24 151.57,-293 181.35,-293 181.35,-293 181.35,-293 415.35,-293 574.91,-293 614.49,-260.57 762.1,-200 764.92,-198.84 767.78,-197.54 770.63,-196.15"/>
<polygon fill="black" stroke="black" points="771.88,-198.93 779.12,-191.2 768.64,-192.72 771.88,-198.93"/>
<text text-anchor="middle" x="414.35" y="-295.45" font-family="Times New Roman,serif" font-size="14.00">Shift</text>
</g>
<!-- Control -->
<g id="node5" class="node">
<title>Control</title>
<path fill="none" stroke="black" d="M1096.1,-234C1096.1,-234 1130.85,-234 1130.85,-234 1136.85,-234 1142.85,-240 1142.85,-246 1142.85,-246 1142.85,-258 1142.85,-258 1142.85,-264 1136.85,-270 1130.85,-270 1130.85,-270 1096.1,-270 1096.1,-270 1090.1,-270 1084.1,-264 1084.1,-258 1084.1,-258 1084.1,-246 1084.1,-246 1084.1,-240 1090.1,-234 1096.1,-234"/>
<text text-anchor="middle" x="1113.47" y="-246.7" font-family="Times New Roman,serif" font-size="14.00">Control</text>
</g>
<!-- None&#45;&gt;Control -->
<g id="edge3" class="edge">
<title>None&#45;&gt;Control</title>
<path fill="none" stroke="black" d="M78.64,-305.88C86.47,-318.36 98.37,-334.6 112.6,-345 138.85,-364.18 148.84,-370 181.35,-370 181.35,-370 181.35,-370 968.35,-370 1013.19,-370 1031.21,-373.17 1066.1,-345 1086.33,-328.67 1098.48,-301.25 1105.23,-280.41"/>
<polygon fill="black" stroke="black" points="1108.86,-281.49 1108.37,-270.91 1102.15,-279.49 1108.86,-281.49"/>
<text text-anchor="middle" x="609.6" y="-372.45" font-family="Times New Roman,serif" font-size="14.00">Control</text>
</g>
<!-- Alt&#45;&gt;None -->
<g id="edge6" class="edge">
<title>Alt&#45;&gt;None</title>
<path fill="none" stroke="black" d="M155.68,-193.26C141.74,-196.11 124.89,-201.41 112.6,-211.25 96.86,-223.85 85.7,-243.7 78.55,-260.06"/>
<polygon fill="black" stroke="black" points="74.95,-258.61 74.43,-269.19 81.44,-261.25 74.95,-258.61"/>
<text text-anchor="middle" x="124.97" y="-214.45" font-family="Times New Roman,serif" font-size="14.00">&#45; Alt</text>
</g>
<!-- Alt, Shift -->
<g id="node4" class="node">
<title>Alt, Shift</title>
<path fill="none" stroke="black" d="M665.1,-165C665.1,-165 707.35,-165 707.35,-165 713.35,-165 719.35,-171 719.35,-177 719.35,-177 719.35,-189 719.35,-189 719.35,-195 713.35,-201 707.35,-201 707.35,-201 665.1,-201 665.1,-201 659.1,-201 653.1,-195 653.1,-189 653.1,-189 653.1,-177 653.1,-177 653.1,-171 659.1,-165 665.1,-165"/>
<text text-anchor="middle" x="686.22" y="-177.7" font-family="Times New Roman,serif" font-size="14.00">Alt, Shift</text>
</g>
<!-- Alt&#45;&gt;Alt, Shift -->
<g id="edge4" class="edge">
<title>Alt&#45;&gt;Alt, Shift</title>
<path fill="none" stroke="black" d="M209.1,-190.99C278.17,-193.44 473.25,-198.83 635.1,-189 637.48,-188.86 639.92,-188.67 642.38,-188.46"/>
<polygon fill="black" stroke="black" points="642.58,-191.86 652.19,-187.4 641.89,-184.9 642.58,-191.86"/>
<text text-anchor="middle" x="414.35" y="-197.45" font-family="Times New Roman,serif" font-size="14.00">Shift</text>
</g>
<!-- Alt, Control -->
<g id="node6" class="node">
<title>Alt, Control</title>
<path fill="none" stroke="black" d="M308.35,-103C308.35,-103 367.1,-103 367.1,-103 373.1,-103 379.1,-109 379.1,-115 379.1,-115 379.1,-127 379.1,-127 379.1,-133 373.1,-139 367.1,-139 367.1,-139 308.35,-139 308.35,-139 302.35,-139 296.35,-133 296.35,-127 296.35,-127 296.35,-115 296.35,-115 296.35,-109 302.35,-103 308.35,-103"/>
<text text-anchor="middle" x="337.72" y="-115.7" font-family="Times New Roman,serif" font-size="14.00">Alt, Control</text>
</g>
<!-- Alt&#45;&gt;Alt, Control -->
<g id="edge5" class="edge">
<title>Alt&#45;&gt;Alt, Control</title>
<path fill="none" stroke="black" d="M199.43,-172.05C207.19,-164.35 217.04,-155.86 227.35,-150.25 245.33,-140.47 266.79,-133.81 285.91,-129.34"/>
<polygon fill="black" stroke="black" points="286.53,-132.57 295.55,-127.02 285.04,-125.73 286.53,-132.57"/>
<text text-anchor="middle" x="252.85" y="-153.45" font-family="Times New Roman,serif" font-size="14.00">Control</text>
</g>
<!-- Shift&#45;&gt;None -->
<g id="edge9" class="edge">
<title>Shift&#45;&gt;None</title>
<path fill="none" stroke="black" d="M802.82,-157.3C797.76,-134.61 786.04,-95.3 762.1,-71 736.58,-45.09 723.59,-38 687.22,-38 181.35,-38 181.35,-38 181.35,-38 85.23,-38 70.59,-193.47 68.7,-259.2"/>
<polygon fill="black" stroke="black" points="65.18,-258.95 68.48,-269.02 72.18,-259.09 65.18,-258.95"/>
<text text-anchor="middle" x="414.35" y="-40.45" font-family="Times New Roman,serif" font-size="14.00">&#45; Shift</text>
</g>
<!-- Shift&#45;&gt;Alt, Shift -->
<g id="edge7" class="edge">
<title>Shift&#45;&gt;Alt, Shift</title>
<path fill="none" stroke="black" d="M780.42,-160.25C767.55,-154.65 751.69,-150.43 737.35,-154.25 732.28,-155.6 727.2,-157.6 722.31,-159.92"/>
<polygon fill="black" stroke="black" points="720.83,-157.27 713.63,-165.04 724.11,-163.46 720.83,-157.27"/>
<text text-anchor="middle" x="749.72" y="-157.45" font-family="Times New Roman,serif" font-size="14.00">Alt</text>
</g>
<!-- Shift, Control -->
<g id="node7" class="node">
<title>Shift, Control</title>
<path fill="none" stroke="black" d="M933.1,-136C933.1,-136 1001.6,-136 1001.6,-136 1007.6,-136 1013.6,-142 1013.6,-148 1013.6,-148 1013.6,-160 1013.6,-160 1013.6,-166 1007.6,-172 1001.6,-172 1001.6,-172 933.1,-172 933.1,-172 927.1,-172 921.1,-166 921.1,-160 921.1,-160 921.1,-148 921.1,-148 921.1,-142 927.1,-136 933.1,-136"/>
<text text-anchor="middle" x="967.35" y="-148.7" font-family="Times New Roman,serif" font-size="14.00">Shift, Control</text>
</g>
<!-- Shift&#45;&gt;Shift, Control -->
<g id="edge8" class="edge">
<title>Shift&#45;&gt;Shift, Control</title>
<path fill="none" stroke="black" d="M834,-173.65C853.15,-172.45 879.84,-170.36 903.1,-167 905.49,-166.66 907.92,-166.28 910.38,-165.87"/>
<polygon fill="black" stroke="black" points="910.97,-169.15 920.2,-163.96 909.75,-162.25 910.97,-169.15"/>
<text text-anchor="middle" x="877.6" y="-175.45" font-family="Times New Roman,serif" font-size="14.00">Control</text>
</g>
<!-- Alt, Shift&#45;&gt;Alt -->
<g id="edge12" class="edge">
<title>Alt, Shift&#45;&gt;Alt</title>
<path fill="none" stroke="black" d="M653.37,-198.6C647.4,-201.05 641.14,-203.32 635.1,-205 633.33,-205.49 485.8,-237.24 397.1,-231 321.09,-225.65 301.09,-226.19 227.35,-207 224.71,-206.31 222.02,-205.52 219.33,-204.66"/>
<polygon fill="black" stroke="black" points="220.68,-201.07 210.09,-201.07 218.37,-207.68 220.68,-201.07"/>
<text text-anchor="middle" x="414.35" y="-234.45" font-family="Times New Roman,serif" font-size="14.00">&#45; Shift</text>
</g>
<!-- Alt, Shift&#45;&gt;Shift -->
<g id="edge11" class="edge">
<title>Alt, Shift&#45;&gt;Shift</title>
<path fill="none" stroke="black" d="M719.08,-180.86C734.62,-179.81 753.38,-178.55 769.5,-177.46"/>
<polygon fill="black" stroke="black" points="769.42,-180.91 779.17,-176.75 768.95,-173.92 769.42,-180.91"/>
<text text-anchor="middle" x="749.72" y="-182.45" font-family="Times New Roman,serif" font-size="14.00">&#45; Alt</text>
</g>
<!-- Alt, Shift, Control -->
<g id="node8" class="node">
<title>Alt, Shift, Control</title>
<path fill="none" stroke="black" d="M461.6,-100C461.6,-100 554.1,-100 554.1,-100 560.1,-100 566.1,-106 566.1,-112 566.1,-112 566.1,-124 566.1,-124 566.1,-130 560.1,-136 554.1,-136 554.1,-136 461.6,-136 461.6,-136 455.6,-136 449.6,-130 449.6,-124 449.6,-124 449.6,-112 449.6,-112 449.6,-106 455.6,-100 461.6,-100"/>
<text text-anchor="middle" x="507.85" y="-112.7" font-family="Times New Roman,serif" font-size="14.00">Alt, Shift, Control</text>
</g>
<!-- Alt, Shift&#45;&gt;Alt, Shift, Control -->
<g id="edge10" class="edge">
<title>Alt, Shift&#45;&gt;Alt, Shift, Control</title>
<path fill="none" stroke="black" d="M653.45,-174.38C633.35,-168.65 606.95,-160.62 584.1,-152 574.84,-148.51 565.1,-144.42 555.82,-140.32"/>
<polygon fill="black" stroke="black" points="557.52,-136.8 546.97,-135.9 554.65,-143.19 557.52,-136.8"/>
<text text-anchor="middle" x="609.6" y="-171.45" font-family="Times New Roman,serif" font-size="14.00">Control</text>
</g>
<!-- Control&#45;&gt;None -->
<g id="edge15" class="edge">
<title>Control&#45;&gt;None</title>
<path fill="none" stroke="black" d="M1094.2,-269.93C1068.42,-293.23 1018.86,-331 968.35,-331 181.35,-331 181.35,-331 181.35,-331 154.22,-331 125.69,-320 104.11,-309.12"/>
<polygon fill="black" stroke="black" points="105.9,-305.58 95.42,-304.01 102.63,-311.77 105.9,-305.58"/>
<text text-anchor="middle" x="609.6" y="-333.45" font-family="Times New Roman,serif" font-size="14.00">&#45; Control</text>
</g>
<!-- Control&#45;&gt;Alt, Control -->
<g id="edge13" class="edge">
<title>Control&#45;&gt;Alt, Control</title>
<path fill="none" stroke="black" d="M1110.86,-234.28C1104.59,-176.92 1076.46,0 968.35,0 608.6,0 608.6,0 608.6,0 515.02,0 417.9,-61.33 369.71,-96.66"/>
<polygon fill="black" stroke="black" points="367.94,-94.36 362.02,-103.15 372.13,-99.97 367.94,-94.36"/>
<text text-anchor="middle" x="749.72" y="-2.45" font-family="Times New Roman,serif" font-size="14.00">Alt</text>
</g>
<!-- Control&#45;&gt;Shift, Control -->
<g id="edge14" class="edge">
<title>Control&#45;&gt;Shift, Control</title>
<path fill="none" stroke="black" d="M1105.71,-234.29C1098.43,-217.61 1085.25,-193.15 1066.1,-179.25 1053.77,-170.3 1038.55,-164.52 1023.82,-160.78"/>
<polygon fill="black" stroke="black" points="1024.75,-157.18 1014.23,-158.41 1023.22,-164.01 1024.75,-157.18"/>
<text text-anchor="middle" x="1048.85" y="-182.45" font-family="Times New Roman,serif" font-size="14.00">Shift</text>
</g>
<!-- Alt, Control&#45;&gt;Alt -->
<g id="edge18" class="edge">
<title>Alt, Control&#45;&gt;Alt</title>
<path fill="none" stroke="black" d="M296.54,-107.11C274.69,-102.08 248,-100.21 227.35,-112.25 209.15,-122.86 197.88,-144.1 191.31,-161.7"/>
<polygon fill="black" stroke="black" points="187.69,-160.46 187.8,-171.06 194.32,-162.71 187.69,-160.46"/>
<text text-anchor="middle" x="252.85" y="-115.45" font-family="Times New Roman,serif" font-size="14.00">&#45; Control</text>
</g>
<!-- Alt, Control&#45;&gt;Control -->
<g id="edge17" class="edge">
<title>Alt, Control&#45;&gt;Control</title>
<path fill="none" stroke="black" d="M345.75,-138.67C354.55,-158.19 371.63,-188.75 397.1,-203 625.23,-330.69 960.49,-281.86 1073.59,-260.19"/>
<polygon fill="black" stroke="black" points="1074,-263.48 1083.14,-258.12 1072.65,-256.61 1074,-263.48"/>
<text text-anchor="middle" x="749.72" y="-290.45" font-family="Times New Roman,serif" font-size="14.00">&#45; Alt</text>
</g>
<!-- Alt, Control&#45;&gt;Alt, Shift, Control -->
<g id="edge16" class="edge">
<title>Alt, Control&#45;&gt;Alt, Shift, Control</title>
<path fill="none" stroke="black" d="M379,-120.28C396.95,-119.96 418.59,-119.57 438.93,-119.21"/>
<polygon fill="black" stroke="black" points="438.81,-122.7 448.74,-119.02 438.68,-115.7 438.81,-122.7"/>
<text text-anchor="middle" x="414.35" y="-122.45" font-family="Times New Roman,serif" font-size="14.00">Shift</text>
</g>
<!-- Shift, Control&#45;&gt;Shift -->
<g id="edge21" class="edge">
<title>Shift, Control&#45;&gt;Shift</title>
<path fill="none" stroke="black" d="M921.36,-144.45C900,-141.64 874.34,-140.82 852.1,-147.25 848.23,-148.37 844.37,-149.94 840.64,-151.77"/>
<polygon fill="black" stroke="black" points="839.14,-149.16 832.13,-157.1 842.56,-155.27 839.14,-149.16"/>
<text text-anchor="middle" x="877.6" y="-150.45" font-family="Times New Roman,serif" font-size="14.00">&#45; Control</text>
</g>
<!-- Shift, Control&#45;&gt;Control -->
<g id="edge20" class="edge">
<title>Shift, Control&#45;&gt;Control</title>
<path fill="none" stroke="black" d="M994.78,-171.97C1017.95,-187.72 1051.79,-210.73 1077.24,-228.04"/>
<polygon fill="black" stroke="black" points="1074.97,-231.41 1085.21,-234.14 1078.91,-225.62 1074.97,-231.41"/>
<text text-anchor="middle" x="1048.85" y="-223.45" font-family="Times New Roman,serif" font-size="14.00">&#45; Shift</text>
</g>
<!-- Shift, Control&#45;&gt;Alt, Shift, Control -->
<g id="edge19" class="edge">
<title>Shift, Control&#45;&gt;Alt, Shift, Control</title>
<path fill="none" stroke="black" d="M950.44,-136.05C938.62,-123.9 921.42,-108.55 903.1,-100 845.52,-73.12 825.43,-81.55 762.1,-76.25 683.03,-69.64 661.48,-72.46 584.1,-90 576.53,-91.72 568.69,-94.01 561.06,-96.55"/>
<polygon fill="black" stroke="black" points="560.11,-93.52 551.83,-100.13 562.42,-100.13 560.11,-93.52"/>
<text text-anchor="middle" x="749.72" y="-79.45" font-family="Times New Roman,serif" font-size="14.00">Alt</text>
</g>
<!-- Alt, Shift, Control&#45;&gt;Alt, Shift -->
<g id="edge24" class="edge">
<title>Alt, Shift, Control&#45;&gt;Alt, Shift</title>
<path fill="none" stroke="black" d="M565.79,-116.39C588.33,-117.76 613.87,-121.94 635.1,-132.25 646.87,-137.96 657.46,-147.61 665.85,-156.96"/>
<polygon fill="black" stroke="black" points="663.78,-158.94 672.89,-164.35 669.14,-154.44 663.78,-158.94"/>
<text text-anchor="middle" x="609.6" y="-135.45" font-family="Times New Roman,serif" font-size="14.00">&#45; Control</text>
</g>
<!-- Alt, Shift, Control&#45;&gt;Alt, Control -->
<g id="edge23" class="edge">
<title>Alt, Shift, Control&#45;&gt;Alt, Control</title>
<path fill="none" stroke="black" d="M449.85,-101.57C432.87,-98.62 414.22,-97.3 397.1,-100.25 394.6,-100.68 392.06,-101.21 389.51,-101.81"/>
<polygon fill="black" stroke="black" points="388.8,-98.66 380.07,-104.67 390.64,-105.41 388.8,-98.66"/>
<text text-anchor="middle" x="414.35" y="-103.45" font-family="Times New Roman,serif" font-size="14.00">&#45; Shift</text>
</g>
<!-- Alt, Shift, Control&#45;&gt;Shift, Control -->
<g id="edge22" class="edge">
<title>Alt, Shift, Control&#45;&gt;Shift, Control</title>
<path fill="none" stroke="black" d="M565.96,-116.32C572.08,-116.19 578.22,-116.08 584.1,-116 726.23,-114.11 762.75,-116.46 903.1,-139 905.59,-139.4 908.13,-139.84 910.69,-140.32"/>
<polygon fill="black" stroke="black" points="909.76,-143.91 920.25,-142.45 911.14,-137.04 909.76,-143.91"/>
<text text-anchor="middle" x="749.72" y="-122.45" font-family="Times New Roman,serif" font-size="14.00">&#45; Alt</text>
</g>
<!-- init -->
<g id="node9" class="node">
<title>init</title>
<ellipse fill="black" stroke="black" cx="1.8" cy="-288" rx="1.8" ry="1.8"/>
</g>
<!-- init&#45;&gt;None -->
<g id="edge25" class="edge">
<title>init&#45;&gt;None</title>
<path fill="none" stroke="black" d="M3.91,-288C7.33,-288 18.21,-288 29.96,-288"/>
<polygon fill="black" stroke="black" points="29.82,-291.5 39.82,-288 29.82,-284.5 29.82,-291.5"/>
</g>
</g>
</svg>
