<?xml version="1.0" encoding="UTF-8" standalone="no"?>
<!DOCTYPE svg PUBLIC "-//W3C//DTD SVG 1.1//EN"
 "http://www.w3.org/Graphics/SVG/1.1/DTD/svg11.dtd">
<!-- Generated by graphviz version 8.0.5 (20230430.1635)
 -->
<!-- Pages: 1 -->
<svg width="123pt" height="113pt"
 viewBox="0.00 0.00 122.85 112.50" xmlns="http://www.w3.org/2000/svg" xmlns:xlink="http://www.w3.org/1999/xlink">
<g id="graph0" class="graph" transform="scale(1 1) rotate(0) translate(4 108.5)">
<polygon fill="white" stroke="none" points="-4,4 -4,-108.5 118.85,-108.5 118.85,4 -4,4"/>
<g id="node1" class="node">
<title></title>
<path fill="none" stroke="black" d="M52.6,-0.5C52.6,-0.5 82.6,-0.5 82.6,-0.5 88.6,-0.5 94.6,-6.5 94.6,-12.5 94.6,-12.5 94.6,-24.5 94.6,-24.5 94.6,-30.5 88.6,-36.5 82.6,-36.5 82.6,-36.5 52.6,-36.5 52.6,-36.5 46.6,-36.5 40.6,-30.5 40.6,-24.5 40.6,-24.5 40.6,-12.5 40.6,-12.5 40.6,-6.5 46.6,-0.5 52.6,-0.5"/>
<text text-anchor="middle" x="67.6" y="-13.2" font-family="Times New Roman,serif" font-size="14.00"> </text>
</g>
<!-- &#45;&gt; -->
<g id="edge1" class="edge">
<title>&#45;&gt;</title>
<path fill="none" stroke="black" d="M63.54,-36.15C62.78,-45.96 64.13,-55 67.6,-55 69.71,-55 71.04,-51.64 71.58,-46.8"/>
<polygon fill="black" stroke="black" points="75.09,-47.18 71.66,-37.15 68.09,-47.13 75.09,-47.18"/>
<text text-anchor="middle" x="67.6" y="-57.45" font-family="Times New Roman,serif" font-size="14.00">Name [Function]</text>
</g>
<!-- &#45;&gt; -->
<g id="edge2" class="edge">
<title>&#45;&gt;</title>
<path fill="none" stroke="black" d="M60.82,-36.36C57.08,-53.82 59.34,-73 67.6,-73 74.19,-73 76.96,-60.82 75.92,-47.04"/>
<polygon fill="black" stroke="black" points="79.27,-46.76 74.38,-37.36 72.34,-47.76 79.27,-46.76"/>
<text text-anchor="middle" x="67.6" y="-75.45" font-family="Times New Roman,serif" font-size="14.00">Age [Function]</text>
</g>
<!-- init -->
<g id="node2" class="node">
<title>init</title>
<ellipse fill="black" stroke="black" cx="1.8" cy="-18.5" rx="1.8" ry="1.8"/>
</g>
<!-- init&#45;&gt; -->
<g id="edge3" class="edge">
<title>init&#45;&gt;</title>
<path fill="none" stroke="black" d="M3.91,-18.5C7.33,-18.5 18.21,-18.5 29.96,-18.5"/>
<polygon fill="black" stroke="black" points="29.82,-22 39.82,-18.5 29.82,-15 29.82,-22"/>
</g>
</g>
</svg>
