<?xml version="1.0" encoding="UTF-8" standalone="no"?>
<!DOCTYPE svg PUBLIC "-//W3C//DTD SVG 1.1//EN"
 "http://www.w3.org/Graphics/SVG/1.1/DTD/svg11.dtd">
<!-- Generated by graphviz version 8.0.5 (20230430.1635)
 -->
<!-- Pages: 1 -->
<svg width="332pt" height="57pt"
 viewBox="0.00 0.00 331.85 56.50" xmlns="http://www.w3.org/2000/svg" xmlns:xlink="http://www.w3.org/1999/xlink">
<g id="graph0" class="graph" transform="scale(1 1) rotate(0) translate(4 52.5)">
<polygon fill="white" stroke="none" points="-4,4 -4,-52.5 327.85,-52.5 327.85,4 -4,4"/>
<!-- Off -->
<g id="node1" class="node">
<title>Off</title>
<path fill="none" stroke="black" d="M52.6,-0.5C52.6,-0.5 133.1,-0.5 133.1,-0.5 139.1,-0.5 145.1,-6.5 145.1,-12.5 145.1,-12.5 145.1,-36 145.1,-36 145.1,-42 139.1,-48 133.1,-48 133.1,-48 52.6,-48 52.6,-48 46.6,-48 40.6,-42 40.6,-36 40.6,-36 40.6,-12.5 40.6,-12.5 40.6,-6.5 46.6,-0.5 52.6,-0.5"/>
<text text-anchor="middle" x="92.85" y="-30.7" font-family="Times New Roman,serif" font-size="14.00">Off</text>
<polyline fill="none" stroke="black" points="40.6,-24.25 145.1,-24.25"/>
<text text-anchor="middle" x="92.85" y="-6.95" font-family="Times New Roman,serif" font-size="14.00">entry / Function</text>
</g>
<!-- On -->
<g id="node2" class="node">
<title>On</title>
<path fill="none" stroke="black" d="M231.35,-0.5C231.35,-0.5 311.85,-0.5 311.85,-0.5 317.85,-0.5 323.85,-6.5 323.85,-12.5 323.85,-12.5 323.85,-36 323.85,-36 323.85,-42 317.85,-48 311.85,-48 311.85,-48 231.35,-48 231.35,-48 225.35,-48 219.35,-42 219.35,-36 219.35,-36 219.35,-12.5 219.35,-12.5 219.35,-6.5 225.35,-0.5 231.35,-0.5"/>
<text text-anchor="middle" x="271.6" y="-30.7" font-family="Times New Roman,serif" font-size="14.00">On</text>
<polyline fill="none" stroke="black" points="219.35,-24.25 323.85,-24.25"/>
<text text-anchor="middle" x="271.6" y="-6.95" font-family="Times New Roman,serif" font-size="14.00">entry / Function</text>
</g>
<!-- Off&#45;&gt;On -->
<g id="edge1" class="edge">
<title>Off&#45;&gt;On</title>
<path fill="none" stroke="black" d="M144.97,-24.25C164.85,-24.25 187.81,-24.25 208.61,-24.25"/>
<polygon fill="black" stroke="black" points="208.59,-27.75 218.59,-24.25 208.59,-20.75 208.59,-27.75"/>
<text text-anchor="middle" x="182.23" y="-26.7" font-family="Times New Roman,serif" font-size="14.00">Switch</text>
</g>
<!-- On&#45;&gt;Off -->
<g id="edge2" class="edge">
<title>On&#45;&gt;Off</title>
<path fill="none" stroke="black" d="M219.51,-7.97C213.44,-6.54 207.29,-5.33 201.35,-4.5 184.51,-2.15 179.94,-2.15 163.1,-4.5 160.59,-4.85 158.05,-5.27 155.49,-5.74"/>
<polygon fill="black" stroke="black" points="155,-2.48 145.94,-7.97 156.45,-9.33 155,-2.48"/>
<text text-anchor="middle" x="182.23" y="-7.7" font-family="Times New Roman,serif" font-size="14.00">Switch</text>
</g>
<!-- init -->
<g id="node3" class="node">
<title>init</title>
<ellipse fill="black" stroke="black" cx="1.8" cy="-24.25" rx="1.8" ry="1.8"/>
</g>
<!-- init&#45;&gt;Off -->
<g id="edge3" class="edge">
<title>init&#45;&gt;Off</title>
<path fill="none" stroke="black" d="M4.06,-24.25C7.53,-24.25 17.79,-24.25 30.13,-24.25"/>
<polygon fill="black" stroke="black" points="29.88,-27.75 39.88,-24.25 29.88,-20.75 29.88,-27.75"/>
</g>
</g>
</svg>
