<?xml version="1.0" encoding="UTF-8" standalone="no"?>
<!DOCTYPE svg PUBLIC "-//W3C//DTD SVG 1.1//EN"
 "http://www.w3.org/Graphics/SVG/1.1/DTD/svg11.dtd">
<!-- Generated by graphviz version 8.0.5 (20230430.1635)
 -->
<!-- Pages: 1 -->
<svg width="860pt" height="260pt"
 viewBox="0.00 0.00 860.00 260.00" xmlns="http://www.w3.org/2000/svg" xmlns:xlink="http://www.w3.org/1999/xlink">
<g id="graph0" class="graph" transform="scale(1 1) rotate(0) translate(4 256)">
<polygon fill="white" stroke="none" points="-4,4 -4,-256 856,-256 856,4 -4,4"/>
<g id="clust1" class="cluster">
<title>clusterConnected</title>
<polygon fill="none" stroke="black" points="0,-89.5 0,-214.5 104,-214.5 104,-89.5 0,-89.5"/>
<text text-anchor="middle" x="52" y="-197.2" font-family="Times New Roman,serif" font-size="14.00">Connected</text>
<text text-anchor="middle" x="52" y="-181.45" font-family="Times New Roman,serif" font-size="14.00">&#45;&#45;&#45;&#45;&#45;&#45;&#45;&#45;&#45;&#45;</text>
<text text-anchor="middle" x="52" y="-165.7" font-family="Times New Roman,serif" font-size="14.00">entry / Function</text>
<text text-anchor="middle" x="52" y="-149.95" font-family="Times New Roman,serif" font-size="14.00">exit / Function</text>
</g>
<!-- OnHold -->
<g id="node1" class="node">
<title>OnHold</title>
<path fill="none" stroke="black" d="M33,-98.5C33,-98.5 70,-98.5 70,-98.5 76,-98.5 82,-104.5 82,-110.5 82,-110.5 82,-122.5 82,-122.5 82,-128.5 76,-134.5 70,-134.5 70,-134.5 33,-134.5 33,-134.5 27,-134.5 21,-128.5 21,-122.5 21,-122.5 21,-110.5 21,-110.5 21,-104.5 27,-98.5 33,-98.5"/>
<text text-anchor="middle" x="51.5" y="-111.2" font-family="Times New Roman,serif" font-size="14.00">OnHold</text>
</g>
<!-- Destroyed -->
<g id="node5" class="node">
<title>Destroyed</title>
<path fill="none" stroke="black" d="M237,-215.5C237,-215.5 286.75,-215.5 286.75,-215.5 292.75,-215.5 298.75,-221.5 298.75,-227.5 298.75,-227.5 298.75,-239.5 298.75,-239.5 298.75,-245.5 292.75,-251.5 286.75,-251.5 286.75,-251.5 237,-251.5 237,-251.5 231,-251.5 225,-245.5 225,-239.5 225,-239.5 225,-227.5 225,-227.5 225,-221.5 231,-215.5 237,-215.5"/>
<text text-anchor="middle" x="261.88" y="-228.2" font-family="Times New Roman,serif" font-size="14.00">Destroyed</text>
</g>
<!-- OnHold&#45;&gt;Destroyed -->
<g id="edge12" class="edge">
<title>OnHold&#45;&gt;Destroyed</title>
<path fill="none" stroke="black" d="M81.91,-133.02C117.85,-153.19 178.87,-187.45 219.52,-210.28"/>
<polygon fill="black" stroke="black" points="217.44,-213.69 227.88,-215.53 220.87,-207.59 217.44,-213.69"/>
<text text-anchor="middle" x="159.75" y="-203.95" font-family="Times New Roman,serif" font-size="14.00">HurlAgainstWall</text>
</g>
<!-- Connected -->
<g id="node6" class="node">
<title>Connected</title>
<path fill="none" stroke="black" d="M235.5,-59.5C235.5,-59.5 288.25,-59.5 288.25,-59.5 294.25,-59.5 300.25,-65.5 300.25,-71.5 300.25,-71.5 300.25,-83.5 300.25,-83.5 300.25,-89.5 294.25,-95.5 288.25,-95.5 288.25,-95.5 235.5,-95.5 235.5,-95.5 229.5,-95.5 223.5,-89.5 223.5,-83.5 223.5,-83.5 223.5,-71.5 223.5,-71.5 223.5,-65.5 229.5,-59.5 235.5,-59.5"/>
<text text-anchor="middle" x="261.88" y="-72.2" font-family="Times New Roman,serif" font-size="14.00">Connected</text>
</g>
<!-- OnHold&#45;&gt;Connected -->
<g id="edge11" class="edge">
<title>OnHold&#45;&gt;Connected</title>
<path fill="none" stroke="black" d="M72.22,-98.61C83.56,-89.55 98.58,-79.49 114,-74.75 145.99,-64.92 183.78,-65.89 213.02,-69.17"/>
<polygon fill="black" stroke="black" points="212.41,-72.75 222.77,-70.52 213.29,-65.8 212.41,-72.75"/>
<text text-anchor="middle" x="159.75" y="-77.95" font-family="Times New Roman,serif" font-size="14.00">OffHold</text>
</g>
<!-- OnHook -->
<g id="node2" class="node">
<title>OnHook</title>
<path fill="none" stroke="black" d="M400.25,-0.5C400.25,-0.5 441,-0.5 441,-0.5 447,-0.5 453,-6.5 453,-12.5 453,-12.5 453,-24.5 453,-24.5 453,-30.5 447,-36.5 441,-36.5 441,-36.5 400.25,-36.5 400.25,-36.5 394.25,-36.5 388.25,-30.5 388.25,-24.5 388.25,-24.5 388.25,-12.5 388.25,-12.5 388.25,-6.5 394.25,-0.5 400.25,-0.5"/>
<text text-anchor="middle" x="420.62" y="-13.2" font-family="Times New Roman,serif" font-size="14.00">OnHook</text>
</g>
<!-- OffHook -->
<g id="node3" class="node">
<title>OffHook</title>
<path fill="none" stroke="black" d="M586.75,-42.5C586.75,-42.5 629.75,-42.5 629.75,-42.5 635.75,-42.5 641.75,-48.5 641.75,-54.5 641.75,-54.5 641.75,-66.5 641.75,-66.5 641.75,-72.5 635.75,-78.5 629.75,-78.5 629.75,-78.5 586.75,-78.5 586.75,-78.5 580.75,-78.5 574.75,-72.5 574.75,-66.5 574.75,-66.5 574.75,-54.5 574.75,-54.5 574.75,-48.5 580.75,-42.5 586.75,-42.5"/>
<text text-anchor="middle" x="608.25" y="-55.2" font-family="Times New Roman,serif" font-size="14.00">OffHook</text>
</g>
<!-- OnHook&#45;&gt;OffHook -->
<g id="edge1" class="edge">
<title>OnHook&#45;&gt;OffHook</title>
<path fill="none" stroke="black" d="M452.82,-24.94C480.25,-30.67 521.23,-39.42 556.75,-47.75 559.24,-48.33 561.79,-48.94 564.37,-49.57"/>
<polygon fill="black" stroke="black" points="563.42,-53.18 573.96,-52.17 565.09,-46.39 563.42,-53.18"/>
<text text-anchor="middle" x="515.5" y="-50.95" font-family="Times New Roman,serif" font-size="14.00">OffHook</text>
</g>
<!-- OffHook&#45;&gt;OnHook -->
<g id="edge3" class="edge">
<title>OffHook&#45;&gt;OnHook</title>
<path fill="none" stroke="black" d="M594.97,-42.64C585.91,-31.14 572.47,-17.19 556.75,-10.75 527.19,1.36 490.92,-1.57 463.4,-6.99"/>
<polygon fill="black" stroke="black" points="462.97,-3.72 453.94,-9.25 464.45,-10.56 462.97,-3.72"/>
<text text-anchor="middle" x="515.5" y="-13.95" font-family="Times New Roman,serif" font-size="14.00">OnHook</text>
</g>
<!-- Ringing -->
<g id="node4" class="node">
<title>Ringing</title>
<path fill="none" stroke="black" d="M805.25,-79.5C805.25,-79.5 840,-79.5 840,-79.5 846,-79.5 852,-85.5 852,-91.5 852,-91.5 852,-103.5 852,-103.5 852,-109.5 846,-115.5 840,-115.5 840,-115.5 805.25,-115.5 805.25,-115.5 799.25,-115.5 793.25,-109.5 793.25,-103.5 793.25,-103.5 793.25,-91.5 793.25,-91.5 793.25,-85.5 799.25,-79.5 805.25,-79.5"/>
<text text-anchor="middle" x="822.62" y="-92.2" font-family="Times New Roman,serif" font-size="14.00">Ringing</text>
</g>
<!-- OffHook&#45;&gt;Ringing -->
<g id="edge2" class="edge">
<title>OffHook&#45;&gt;Ringing</title>
<path fill="none" stroke="black" d="M641.51,-66.12C679.37,-72.72 742.14,-83.65 782.68,-90.71"/>
<polygon fill="black" stroke="black" points="782.03,-94.33 792.49,-92.6 783.24,-87.43 782.03,-94.33"/>
<text text-anchor="middle" x="717.5" y="-91.95" font-family="Times New Roman,serif" font-size="14.00">Dial / Number to call</text>
</g>
<!-- Ringing&#45;&gt;Connected -->
<g id="edge4" class="edge">
<title>Ringing&#45;&gt;Connected</title>
<path fill="none" stroke="black" d="M793.33,-104.6C787.39,-105.81 781.15,-106.87 775.25,-107.5 724.21,-112.94 711.06,-108.9 659.75,-107.5 537.5,-104.17 507.09,-99.49 385,-92.5 355.33,-90.8 347.73,-92.29 318.25,-88.5 315.75,-88.18 313.19,-87.81 310.61,-87.41"/>
<polygon fill="black" stroke="black" points="311.44,-83.83 300.99,-85.6 310.26,-90.73 311.44,-83.83"/>
<text text-anchor="middle" x="515.5" y="-105.95" font-family="Times New Roman,serif" font-size="14.00">CallConnected</text>
</g>
<!-- Connected&#45;&gt;OnHold -->
<g id="edge9" class="edge">
<title>Connected&#45;&gt;OnHold</title>
<path fill="none" stroke="black" d="M223.55,-89.82C217.56,-91.55 211.39,-93.18 205.5,-94.5 167.6,-102.99 123.65,-108.91 92.61,-112.46"/>
<polygon fill="black" stroke="black" points="92.34,-109.07 82.79,-113.65 93.12,-116.03 92.34,-109.07"/>
<text text-anchor="middle" x="159.75" y="-112.95" font-family="Times New Roman,serif" font-size="14.00">OnHold</text>
</g>
<!-- Connected&#45;&gt;OnHook -->
<g id="edge10" class="edge">
<title>Connected&#45;&gt;OnHook</title>
<path fill="none" stroke="black" d="M293.36,-59.63C301.3,-55.39 309.96,-51.13 318.25,-47.75 337.39,-39.95 359.36,-33.34 377.94,-28.39"/>
<polygon fill="black" stroke="black" points="378.64,-31.57 387.44,-25.67 376.88,-24.79 378.64,-31.57"/>
<text text-anchor="middle" x="342.62" y="-50.95" font-family="Times New Roman,serif" font-size="14.00">OnHook</text>
</g>
<!-- Connected&#45;&gt;OffHook -->
<g id="edge8" class="edge">
<title>Connected&#45;&gt;OffHook</title>
<path fill="none" stroke="black" d="M299.99,-75.87C355.75,-73.39 464.43,-68.44 556.75,-63.5 559.14,-63.37 561.59,-63.24 564.06,-63.1"/>
<polygon fill="black" stroke="black" points="564.14,-66.54 573.93,-62.48 563.74,-59.55 564.14,-66.54"/>
<text text-anchor="middle" x="420.62" y="-74.95" font-family="Times New Roman,serif" font-size="14.00">LeftMessage</text>
</g>
<!-- Connected&#45;&gt;Connected -->
<g id="edge5" class="edge">
<title>Connected&#45;&gt;Connected</title>
<path fill="none" stroke="black" d="M257.07,-95.15C256.17,-104.96 257.77,-114 261.88,-114 264.37,-114 265.94,-110.64 266.59,-105.8"/>
<polygon fill="black" stroke="black" points="270.09,-106.18 266.68,-96.15 263.09,-106.12 270.09,-106.18"/>
<text text-anchor="middle" x="261.88" y="-116.45" font-family="Times New Roman,serif" font-size="14.00">MuteMicrophone / Function [Function]</text>
</g>
<!-- Connected&#45;&gt;Connected -->
<g id="edge6" class="edge">
<title>Connected&#45;&gt;Connected</title>
<path fill="none" stroke="black" d="M253.85,-95.36C249.42,-112.82 252.1,-132 261.88,-132 269.67,-132 272.95,-119.82 271.72,-106.04"/>
<polygon fill="black" stroke="black" points="275.03,-105.63 269.9,-96.36 268.13,-106.81 275.03,-105.63"/>
<text text-anchor="middle" x="261.88" y="-134.45" font-family="Times New Roman,serif" font-size="14.00">UnmuteMicrophone / Function [Function]</text>
</g>
<!-- Connected&#45;&gt;Connected -->
<g id="edge7" class="edge">
<title>Connected&#45;&gt;Connected</title>
<path fill="none" stroke="black" d="M251.79,-95.34C242.59,-119.91 245.95,-150 261.88,-150 275.63,-150 280.01,-127.57 275.03,-105.63"/>
<polygon fill="black" stroke="black" points="278.17,-104.92 271.96,-96.34 271.46,-106.92 278.17,-104.92"/>
<text text-anchor="middle" x="261.88" y="-152.45" font-family="Times New Roman,serif" font-size="14.00">SetVolume / Function [Function]</text>
</g>
<!-- init -->
<g id="node7" class="node">
<title>init</title>
<ellipse fill="black" stroke="black" cx="261.88" cy="-13.5" rx="1.8" ry="1.8"/>
</g>
<!-- init&#45;&gt;OnHook -->
<g id="edge13" class="edge">
<title>init&#45;&gt;OnHook</title>
<path fill="none" stroke="black" d="M263.88,-13.53C272.46,-13.81 334.44,-15.78 377.58,-17.16"/>
<polygon fill="black" stroke="black" points="377.26,-20.68 387.36,-17.5 377.48,-13.69 377.26,-20.68"/>
</g>
</g>
</svg>
