<?xml version="1.0" encoding="UTF-8" standalone="no"?>
<!DOCTYPE svg PUBLIC "-//W3C//DTD SVG 1.1//EN"
 "http://www.w3.org/Graphics/SVG/1.1/DTD/svg11.dtd">
<!-- Generated by graphviz version 8.0.5 (20230430.1635)
 -->
<!-- Pages: 1 -->
<svg width="395pt" height="57pt"
 viewBox="0.00 0.00 394.85 56.50" xmlns="http://www.w3.org/2000/svg" xmlns:xlink="http://www.w3.org/1999/xlink">
<g id="graph0" class="graph" transform="scale(1 1) rotate(0) translate(4 52.5)">
<polygon fill="white" stroke="none" points="-4,4 -4,-52.5 390.85,-52.5 390.85,4 -4,4"/>
<!-- Step1 -->
<g id="node1" class="node">
<title>Step1</title>
<path fill="none" stroke="black" d="M52.6,-0.5C52.6,-0.5 111.35,-0.5 111.35,-0.5 117.35,-0.5 123.35,-6.5 123.35,-12.5 123.35,-12.5 123.35,-36 123.35,-36 123.35,-42 117.35,-48 111.35,-48 111.35,-48 52.6,-48 52.6,-48 46.6,-48 40.6,-42 40.6,-36 40.6,-36 40.6,-12.5 40.6,-12.5 40.6,-6.5 46.6,-0.5 52.6,-0.5"/>
<text text-anchor="middle" x="81.98" y="-30.7" font-family="Times New Roman,serif" font-size="14.00">Step1</text>
<polyline fill="none" stroke="black" points="40.6,-24.25 123.35,-24.25"/>
<text text-anchor="middle" x="81.98" y="-6.95" font-family="Times New Roman,serif" font-size="14.00">entry / entry</text>
</g>
<!-- Step2 -->
<g id="node2" class="node">
<title>Step2</title>
<path fill="none" stroke="black" d="M199.85,-0.5C199.85,-0.5 258.6,-0.5 258.6,-0.5 264.6,-0.5 270.6,-6.5 270.6,-12.5 270.6,-12.5 270.6,-36 270.6,-36 270.6,-42 264.6,-48 258.6,-48 258.6,-48 199.85,-48 199.85,-48 193.85,-48 187.85,-42 187.85,-36 187.85,-36 187.85,-12.5 187.85,-12.5 187.85,-6.5 193.85,-0.5 199.85,-0.5"/>
<text text-anchor="middle" x="229.23" y="-30.7" font-family="Times New Roman,serif" font-size="14.00">Step2</text>
<polyline fill="none" stroke="black" points="187.85,-24.25 270.6,-24.25"/>
<text text-anchor="middle" x="229.23" y="-6.95" font-family="Times New Roman,serif" font-size="14.00">entry / entry</text>
</g>
<!-- Step1&#45;&gt;Step2 -->
<g id="edge1" class="edge">
<title>Step1&#45;&gt;Step2</title>
<path fill="none" stroke="black" d="M123.05,-24.25C139.81,-24.25 159.48,-24.25 177.25,-24.25"/>
<polygon fill="black" stroke="black" points="177.03,-27.75 187.03,-24.25 177.03,-20.75 177.03,-27.75"/>
<text text-anchor="middle" x="155.6" y="-26.7" font-family="Times New Roman,serif" font-size="14.00">Next</text>
</g>
<!-- Step2&#45;&gt;Step1 -->
<g id="edge3" class="edge">
<title>Step2&#45;&gt;Step1</title>
<path fill="none" stroke="black" d="M188.15,-8.8C182.1,-7.02 175.87,-5.49 169.85,-4.5 157.35,-2.44 153.85,-2.44 141.35,-4.5 138.81,-4.92 136.23,-5.43 133.65,-6.02"/>
<polygon fill="black" stroke="black" points="132.83,-2.88 124.05,-8.8 134.61,-9.65 132.83,-2.88"/>
<text text-anchor="middle" x="155.6" y="-7.7" font-family="Times New Roman,serif" font-size="14.00">Back</text>
</g>
<!-- Step3 -->
<g id="node3" class="node">
<title>Step3</title>
<path fill="none" stroke="black" d="M344.85,-6.25C344.85,-6.25 374.85,-6.25 374.85,-6.25 380.85,-6.25 386.85,-12.25 386.85,-18.25 386.85,-18.25 386.85,-30.25 386.85,-30.25 386.85,-36.25 380.85,-42.25 374.85,-42.25 374.85,-42.25 344.85,-42.25 344.85,-42.25 338.85,-42.25 332.85,-36.25 332.85,-30.25 332.85,-30.25 332.85,-18.25 332.85,-18.25 332.85,-12.25 338.85,-6.25 344.85,-6.25"/>
<text text-anchor="middle" x="359.85" y="-18.95" font-family="Times New Roman,serif" font-size="14.00">Step3</text>
</g>
<!-- Step2&#45;&gt;Step3 -->
<g id="edge2" class="edge">
<title>Step2&#45;&gt;Step3</title>
<path fill="none" stroke="black" d="M270.57,-24.25C287.21,-24.25 306.35,-24.25 322.55,-24.25"/>
<polygon fill="black" stroke="black" points="322.22,-27.75 332.22,-24.25 322.22,-20.75 322.22,-27.75"/>
<text text-anchor="middle" x="301.73" y="-26.7" font-family="Times New Roman,serif" font-size="14.00">Next</text>
</g>
<!-- init -->
<g id="node4" class="node">
<title>init</title>
<ellipse fill="black" stroke="black" cx="1.8" cy="-24.25" rx="1.8" ry="1.8"/>
</g>
<!-- init&#45;&gt;Step1 -->
<g id="edge4" class="edge">
<title>init&#45;&gt;Step1</title>
<path fill="none" stroke="black" d="M3.91,-24.25C7.27,-24.25 17.91,-24.25 30.25,-24.25"/>
<polygon fill="black" stroke="black" points="29.9,-27.75 39.9,-24.25 29.9,-20.75 29.9,-27.75"/>
</g>
</g>
</svg>
